<svg viewBox="0 0 512 512" xml:space="preserve" xmlns="http://www.w3.org/2000/svg" enable-background="new 0 0 512 512"><path d="M512 397.1c0 63.5-51.4 114.9-114.9 114.9H114.9C51.5 512 0 460.6 0 397.1V114.9C0 51.5 51.5 0 114.9 0h282.2C460.6 0 512 51.5 512 114.9v282.2z" fill="#ffffff" class="fill-1387c8"></path><path d="M142.3 212.9h53.4v171.6h-53.4V212.9zm26.7-85.4c17.1 0 30.9 13.9 30.9 30.9 0 17.1-13.9 31-30.9 31-17.1 0-31-13.9-31-31 .1-17 13.9-30.9 31-30.9M229.2 212.9h51.2v23.5h.7c7.1-13.5 24.5-27.7 50.5-27.7 54 0 64 35.5 64 81.7v94.1h-53.3V301c0-19.9-.4-45.5-27.7-45.5-27.8 0-32 21.7-32 44v84.9h-53.3V212.9z" fill="#231d70" class="fill-ffffff"></path></svg>