<svg viewBox="0 0 512 512" xml:space="preserve" xmlns="http://www.w3.org/2000/svg" enable-background="new 0 0 512 512"><path d="M512 397.1c0 63.5-51.5 114.9-114.9 114.9H114.9C51.5 512 0 460.5 0 397.1V114.9C0 51.5 51.5 0 114.9 0h282.2C460.5 0 512 51.5 512 114.9v282.2z" fill="#ffffff" class="fill-5ebee1"></path><path d="M383.1 134.1 116.3 238c-8.6 3.4-8.1 15.8.8 18.4l67.8 20 25.3 80.3c2.6 8.4 13.3 10.9 19.4 4.6l35.1-35.8 68.8 50.5c8.4 6.2 20.4 1.6 22.5-8.6l45.5-217.8c2.3-10.6-8.2-19.5-18.4-15.5zm-33.4 48.3L225.8 292c-1.2 1.1-2 2.6-2.2 4.2l-4.8 42.4c-.2 1.4-2.1 1.6-2.5.2l-19.6-63.3c-.9-2.9.3-6 2.9-7.6l146.3-90.8c3.3-1.9 6.8 2.7 3.8 5.3z" fill="#231d70" class="fill-ffffff"></path></svg>