<svg viewBox="0 0 512 512" xml:space="preserve" xmlns="http://www.w3.org/2000/svg" enable-background="new 0 0 512 512"><path d="M512 397.1c0 63.5-51.5 114.9-114.9 114.9H114.9C51.5 512 0 460.5 0 397.1V114.9C0 51.5 51.5 0 114.9 0h282.2C460.5 0 512 51.5 512 114.9v282.2z" fill="#ffffff" class="fill-209e48"></path><path d="M125.8 386.9c1.5-5.7 2.7-10.6 4.1-15.5 4.3-15.7 8.7-31.4 12.8-47.2.6-2.3.3-5.5-.8-7.6-40-76.2 1.3-168.3 85.1-188 76.1-17.9 144.6 33.5 157.1 102.2 13 71.7-33.9 139.7-105 152.2-28.3 4.9-55.3.7-81.1-11.8-2.3-1.1-5.5-1.4-8-.8-34.4 8.7-57.3 15.1-64.2 16.5zm30.2-29.8c12.9-3.4 24.8-6.4 36.7-9.7 3.3-.9 5.9-.4 8.9 1.3 22.3 12.9 46.3 17.7 71.9 13.6 58.9-9.4 99.3-64.6 90.3-123.3-9.4-60.9-66.4-101.7-126.7-90.6-72.9 13.4-111.7 94.7-75.4 159.1 4 7.1 5.1 13 2.4 20.6-3.3 9.1-5.3 18.6-8.1 29z" fill-rule="evenodd" clip-rule="evenodd" fill="#231d70" class="fill-ffffff"></path><path d="M290.2 317.2c-25.4-.9-65.7-20.9-93.4-69-9.8-17.1-8.4-36.5 6-49.9 4.9-4.5 11-3.4 16.7-2.5 1.4.2 2.9 2.4 3.6 4 3.7 8.4 7.3 16.8 10.5 25.3 1.7 4.6-1.4 8.8-8 16.3-2.1 2.4-2.5 4.6-.9 7.4 10.6 18 25.5 31.1 45 38.7 2.9 1.1 5 .4 6.8-1.8 10.4-12.6 11.4-16.3 16.9-13.8 26.2 12.6 28.3 13.1 28.4 16 1 22.3-19.3 30.2-31.6 29.3z" fill-rule="evenodd" clip-rule="evenodd" fill="#231d70" class="fill-ffffff"></path></svg>